<svg xmlns="http://www.w3.org/2000/svg" width="16.641" height="16.64" viewBox="0 0 16.641 16.64">
  <path id="call" d="M15.451,12.3a1.9,1.9,0,0,0-1.393.365c-.4.233-1.163.852-1.6.694A9.93,9.93,0,0,1,7.206,8.234c-.161-.447.455-1.215.687-1.62a1.941,1.941,0,0,0,.363-1.4,11.392,11.392,0,0,0-1.939-2.7A1.59,1.59,0,0,0,5.346,2C4.1,1.948,2.7,3.614,2.457,4.013a3.24,3.24,0,0,0,.011,3.353c1.493,3.686,7.143,9.245,10.841,10.8a4.462,4.462,0,0,0,1.868.479,2.425,2.425,0,0,0,1.456-.457c.317-.183,2.053-1.647,2.007-2.929a1.611,1.611,0,0,0-.506-.971A11.477,11.477,0,0,0,15.451,12.3Z" transform="translate(-2 -2)" fill="#fff"/>
</svg>
