<svg id="instagram_1_" data-name="instagram (1)" xmlns="http://www.w3.org/2000/svg" width="19.617" height="19.617" viewBox="0 0 19.617 19.617">
  <path id="Path_63413" data-name="Path 63413" d="M14.306,0h-9A5.316,5.316,0,0,0,0,5.31v9a5.316,5.316,0,0,0,5.31,5.31h9a5.316,5.316,0,0,0,5.31-5.31v-9A5.316,5.316,0,0,0,14.306,0Zm-4.5,15.173a5.364,5.364,0,1,1,5.364-5.364A5.37,5.37,0,0,1,9.808,15.173ZM15.3,5.71a1.585,1.585,0,1,1,1.585-1.585A1.587,1.587,0,0,1,15.3,5.71Zm0,0" transform="translate(0.001 0)" fill="#fff"/>
  <path id="Path_63414" data-name="Path 63414" d="M150.234,146.02a4.214,4.214,0,1,0,4.214,4.214A4.219,4.219,0,0,0,150.234,146.02Zm0,0" transform="translate(-140.425 -140.425)" fill="#fff"/>
  <path id="Path_63415" data-name="Path 63415" d="M388.427,96.3a.435.435,0,1,0,.435.435A.436.436,0,0,0,388.427,96.3Zm0,0" transform="translate(-373.126 -92.611)" fill="#fff"/>
</svg>
