<svg id="_8562" data-name="8562" xmlns="http://www.w3.org/2000/svg" width="21.548" height="20.202" viewBox="0 0 21.548 20.202">
  <g id="Group_174208" data-name="Group 174208" transform="translate(0 0)">
    <g id="Group_174207" data-name="Group 174207" transform="translate(0)">
      <path id="Path_63416" data-name="Path 63416" d="M21.126,31.074c-2.881-.474-4.179-3.425-4.232-3.55a.2.2,0,0,0-.012-.024.89.89,0,0,1-.1-.733c.158-.369.761-.56,1.16-.687.116-.036.225-.071.315-.106a2.439,2.439,0,0,0,.859-.513.816.816,0,0,0,.261-.587.924.924,0,0,0-.692-.8,1.251,1.251,0,0,0-.469-.089,1.044,1.044,0,0,0-.436.089,2.449,2.449,0,0,1-.9.256.825.825,0,0,1-.3-.065c.008-.135.016-.273.026-.416l0-.062a10.667,10.667,0,0,0-.275-4.35,5.852,5.852,0,0,0-1.319-1.887,5.514,5.514,0,0,0-1.577-1.04,6.232,6.232,0,0,0-2.461-.52h-.054l-.37,0a6.255,6.255,0,0,0-2.463.52A5.483,5.483,0,0,0,6.522,17.55a5.871,5.871,0,0,0-1.313,1.883,10.676,10.676,0,0,0-.276,4.348v0c.009.156.02.319.03.478a.863.863,0,0,1-.353.066,2.337,2.337,0,0,1-.96-.257.863.863,0,0,0-.365-.075,1.29,1.29,0,0,0-.645.18.893.893,0,0,0-.457.583.8.8,0,0,0,.307.756,2.648,2.648,0,0,0,.8.459c.092.036.2.07.315.106.4.127,1,.318,1.161.687a.9.9,0,0,1-.1.733.191.191,0,0,0-.011.024A7.132,7.132,0,0,1,3.57,29.2a6.091,6.091,0,0,1-1.309,1.156,4.818,4.818,0,0,1-1.838.715A.5.5,0,0,0,0,31.6a.638.638,0,0,0,.053.22h0a1.346,1.346,0,0,0,.73.624,8.336,8.336,0,0,0,2.108.548,2.557,2.557,0,0,1,.129.463c.035.162.071.329.124.505a.552.552,0,0,0,.578.42,2.813,2.813,0,0,0,.5-.069,5.637,5.637,0,0,1,1.13-.128,4.911,4.911,0,0,1,.808.069,3.838,3.838,0,0,1,1.51.78,4.888,4.888,0,0,0,2.977,1.16q.055,0,.109,0c.043,0,.1,0,.155,0a4.9,4.9,0,0,0,2.977-1.158h0a3.852,3.852,0,0,1,1.51-.778,4.911,4.911,0,0,1,.808-.069,5.663,5.663,0,0,1,1.13.12,2.731,2.731,0,0,0,.5.061h.024a.545.545,0,0,0,.554-.413c.051-.174.088-.335.124-.5a2.645,2.645,0,0,1,.128-.461,8.394,8.394,0,0,0,2.108-.548,1.351,1.351,0,0,0,.729-.622.64.64,0,0,0,.054-.222A.5.5,0,0,0,21.126,31.074Z" transform="translate(0 -15.988)" fill="#fff"/>
    </g>
  </g>
</svg>
