<svg xmlns="http://www.w3.org/2000/svg" width="19.599" height="15.924" viewBox="0 0 19.599 15.924">
  <g id="Group_174204" data-name="Group 174204" transform="translate(0 0)">
    <path id="Path_63412" data-name="Path 63412" d="M19.6,49.885a8.377,8.377,0,0,1-2.315.635A4,4,0,0,0,19.052,48.3a8.03,8.03,0,0,1-2.548.973,4.018,4.018,0,0,0-6.95,2.748,4.137,4.137,0,0,0,.093.916,11.373,11.373,0,0,1-8.282-4.2A4.019,4.019,0,0,0,2.6,54.1a3.968,3.968,0,0,1-1.815-.495v.044A4.036,4.036,0,0,0,4,57.6a4.01,4.01,0,0,1-1.053.132,3.553,3.553,0,0,1-.761-.069,4.056,4.056,0,0,0,3.754,2.8A8.073,8.073,0,0,1,.962,62.176,7.528,7.528,0,0,1,0,62.121a11.312,11.312,0,0,0,6.164,1.8A11.357,11.357,0,0,0,17.6,52.491c0-.178-.006-.349-.015-.519A8.016,8.016,0,0,0,19.6,49.885Z" transform="translate(0 -48)" fill="#fff"/>
  </g>
</svg>
