<svg id="_2253" data-name="2253" xmlns="http://www.w3.org/2000/svg" width="19.913" height="19.914" viewBox="0 0 19.913 19.914">
  <path id="Path_63417" data-name="Path 63417" d="M15.543,12.952l-.007.062c-1.825-.909-2.015-1.03-2.251-.677-.163.245-.64.8-.783.964s-.29.174-.536.062a6.734,6.734,0,0,1-1.994-1.232,7.527,7.527,0,0,1-1.377-1.717c-.243-.42.266-.48.728-1.356A.456.456,0,0,0,9.3,8.624C9.24,8.5,8.745,7.28,8.537,6.793s-.4-.423-.558-.423a1.235,1.235,0,0,0-1.135.285c-1.339,1.472-1,2.99.144,4.6,2.252,2.947,3.452,3.49,5.645,4.243a3.433,3.433,0,0,0,1.56.1,2.553,2.553,0,0,0,1.673-1.183,2.054,2.054,0,0,0,.149-1.182c-.061-.112-.224-.174-.473-.286Z" transform="translate(-1.018 -1.081)" fill="#fff"/>
  <path id="Path_63418" data-name="Path 63418" d="M17.026,2.862C10.646-3.306.088,1.167.084,9.868A9.82,9.82,0,0,0,1.407,14.8L0,19.913l5.256-1.371a9.932,9.932,0,0,0,14.657-8.67,9.786,9.786,0,0,0-2.9-6.979Zm1.23,6.984A8.261,8.261,0,0,1,5.8,16.9l-.3-.178-3.111.809.834-3.024-.2-.311A8.229,8.229,0,0,1,15.842,4.046a8.121,8.121,0,0,1,2.414,5.8Z" transform="translate(0 0)" fill="#fff"/>
</svg>
