<svg id="reveal" xmlns="http://www.w3.org/2000/svg" width="105.268" height="105.268" viewBox="0 0 105.268 105.268">
  <path id="Path_117" data-name="Path 117" d="M112.554,58.386,81.607,27.438A4.878,4.878,0,0,0,78.134,26c-.11,0-.218.009-.327.016v3.309a1.637,1.637,0,0,1,.327-.035,1.616,1.616,0,0,1,1.147.474l30.948,30.948a1.624,1.624,0,0,1,0,2.294L67.113,106.121a1.623,1.623,0,0,1-2.294,0L53.781,95.082H49.129l13.365,13.365a4.911,4.911,0,0,0,6.945,0l43.115-43.115a4.911,4.911,0,0,0,0-6.945Z" transform="translate(-8.725 -4.618)" fill="#43bca9"/>
  <path id="Path_118" data-name="Path 118" d="M65.792,82.24V4.934A4.94,4.94,0,0,0,60.858,0H4.934A4.94,4.94,0,0,0,0,4.934V82.24a4.94,4.94,0,0,0,4.934,4.934H60.858A4.94,4.94,0,0,0,65.792,82.24Zm-62.5,0V4.934A1.647,1.647,0,0,1,4.934,3.29H60.858A1.647,1.647,0,0,1,62.5,4.934V82.24a1.647,1.647,0,0,1-1.645,1.645H4.934A1.647,1.647,0,0,1,3.29,82.24Z" fill="#43bca9"/>
  <path id="Path_119" data-name="Path 119" d="M57.965,55.943a5.013,5.013,0,0,0-4.21-4.287L43.168,49.738a1.708,1.708,0,0,1-.614-.256,16.339,16.339,0,0,1-3.214,1.4,5.044,5.044,0,0,0,3.242,2.1L53.21,54.9a1.74,1.74,0,0,1,1.5,1.486L56.681,69.7H12.308l-.019,0,2-13.36a1.745,1.745,0,0,1,1.531-1.449l10.588-1.919a5.044,5.044,0,0,0,3.242-2.1,16.339,16.339,0,0,1-3.214-1.4,1.708,1.708,0,0,1-.614.256L15.275,51.649a5.014,5.014,0,0,0-4.245,4.25L9.037,69.215A3.275,3.275,0,0,0,9.8,71.84a3.311,3.311,0,0,0,2.511,1.149H56.681a3.311,3.311,0,0,0,2.511-1.149,3.275,3.275,0,0,0,.76-2.625ZM34.495,48.317A13.158,13.158,0,1,0,21.336,35.158,13.158,13.158,0,0,0,34.495,48.317Zm0-23.027a9.869,9.869,0,1,1-9.869,9.869A9.869,9.869,0,0,1,34.495,25.29Z" transform="translate(-1.599 -3.907)" fill="#43bca9"/>
</svg>
