<svg xmlns="http://www.w3.org/2000/svg" width="104.422" height="101.159" viewBox="0 0 104.422 101.159">
  <g id="assignment" transform="translate(0 -4)">
    <path id="Path_115" data-name="Path 115" d="M92.674,4H27.381A10.86,10.86,0,0,0,16.553,14.867V88.722H1.632A1.632,1.632,0,0,0,0,90.353V92.38c0,7.046,5.27,12.779,11.748,12.779H72.442A11.88,11.88,0,0,0,84.19,93.177V19.269h18.6a1.632,1.632,0,0,0,1.632-1.632V15.79A11.782,11.782,0,0,0,92.674,4ZM11.748,101.9c-4.678,0-8.485-4.268-8.485-9.515v-.4H60.7v1.192a12.062,12.062,0,0,0,3.7,8.719Zm69.179-86.1V93.177a8.487,8.487,0,1,1-16.968,0V90.354a1.632,1.632,0,0,0-1.632-1.632H19.816V14.867a7.593,7.593,0,0,1,7.564-7.6h57.2a11.768,11.768,0,0,0-3.657,8.527Zm20.232.216H84.19V15.79a8.484,8.484,0,1,1,16.968,0Z" fill="#43bca9"/>
    <path id="Path_116" data-name="Path 116" d="M78.684,40.316H34.632a1.632,1.632,0,1,0,0,3.263H78.684a1.632,1.632,0,0,0,0-3.263Zm0-8.158H34.632a1.632,1.632,0,1,0,0,3.263H78.684a1.632,1.632,0,0,0,0-3.263ZM46.053,27.263H67.263a1.632,1.632,0,0,0,0-3.263H46.053a1.632,1.632,0,1,0,0,3.263ZM78.684,48.474H34.632a1.632,1.632,0,1,0,0,3.263H78.684a1.632,1.632,0,0,0,0-3.263Zm0,8.158H34.632a1.632,1.632,0,1,0,0,3.263H78.684a1.632,1.632,0,0,0,0-3.263Zm0,8.158H34.632a1.632,1.632,0,1,0,0,3.263H78.684a1.632,1.632,0,0,0,0-3.263Zm0,8.158H34.632a1.632,1.632,0,1,0,0,3.263H78.684a1.632,1.632,0,0,0,0-3.263Zm0,8.158H34.632a1.632,1.632,0,1,0,0,3.263H78.684a1.632,1.632,0,0,0,0-3.263Zm28.553-39.158H99.079a3.267,3.267,0,0,0-3.263,3.263V95.431a1.63,1.63,0,0,0,.163.712l5.71,11.779a1.632,1.632,0,0,0,2.937,0l5.711-11.78a1.63,1.63,0,0,0,.163-.711V45.211A3.267,3.267,0,0,0,107.237,41.947ZM99.079,89.264h8.158v3.263H99.079ZM107.237,86H99.079V51.737h8.158Zm0-40.79v3.263H99.079V45.211Zm-4.079,58.26L99.435,95.79h7.447Z" transform="translate(-6.079 -3.684)" fill="#43bca9"/>
  </g>
</svg>
