<svg xmlns="http://www.w3.org/2000/svg" width="98.725" height="109.302" viewBox="0 0 98.725 109.302">
  <g id="treatment" transform="translate(-4 -1)">
    <path id="Path_113" data-name="Path 113" d="M96.121,50.681h-.513a6.635,6.635,0,0,0-4.125,1.446L77.529,63.29a10.593,10.593,0,0,0-10.063-7.32H59.871a22.764,22.764,0,0,1-8.5-1.638,26.3,26.3,0,0,0-9.807-1.888,19.967,19.967,0,0,0-14.211,5.886L25.965,59.72a1.712,1.712,0,0,0-.809-.224H19.868l-.005-.1A1.763,1.763,0,0,0,18.1,57.733H5.763A1.762,1.762,0,0,0,4,59.5v29.97a1.764,1.764,0,0,0,1.763,1.763h14.1a1.764,1.764,0,0,0,1.761-1.865l-.1-1.661h5.389a1.763,1.763,0,0,0,1.759-1.888l-.067-.933,1.909-.636a38.911,38.911,0,0,1,19.853-.985,47.139,47.139,0,0,0,9.247.917,41.708,41.708,0,0,0,27.31-10.186l13.516-11.715a6.6,6.6,0,0,0-4.325-11.595ZM7.526,87.7V61.259h8.915L18,87.7Zm13.8-3.526L20.076,63.022h3.438l1.511,21.155ZM98.136,59.611,84.619,71.325a38.179,38.179,0,0,1-25,9.326,43.778,43.778,0,0,1-8.556-.846A42.368,42.368,0,0,0,29.4,80.9l-1.054.351L27.088,63.582l2.757-2.759a16.475,16.475,0,0,1,11.72-4.853,22.764,22.764,0,0,1,8.5,1.638A26.3,26.3,0,0,0,59.871,59.5h7.595a7.044,7.044,0,0,1,6.8,5.289H56.888v3.526H76.281v-.016a1.744,1.744,0,0,0,1.1-.37L93.688,54.881a3.082,3.082,0,0,1,1.92-.673h.513a3.077,3.077,0,0,1,2.015,5.4ZM60.414,29.526H58.651V27.763A1.762,1.762,0,0,0,56.888,26H49.837a1.762,1.762,0,0,0-1.763,1.763v1.763H46.311a1.762,1.762,0,0,0-1.763,1.763v7.052A1.762,1.762,0,0,0,46.311,40.1h1.763v1.763a1.762,1.762,0,0,0,1.763,1.763h7.052a1.762,1.762,0,0,0,1.763-1.763V40.1h1.763a1.762,1.762,0,0,0,1.763-1.763V31.289A1.762,1.762,0,0,0,60.414,29.526Zm-1.763,7.052H56.888a1.762,1.762,0,0,0-1.763,1.763V40.1H51.6V38.341a1.762,1.762,0,0,0-1.763-1.763H48.074V33.052h1.763A1.762,1.762,0,0,0,51.6,31.289V29.526h3.526v1.763a1.762,1.762,0,0,0,1.763,1.763h1.763Z" transform="translate(0 19.074)" fill="#43bca9"/>
    <path id="Path_114" data-name="Path 114" d="M74.94,30.97a29.97,29.97,0,1,0-59.94,0,1.76,1.76,0,0,0,.765,1.453L29.8,42.071a6.981,6.981,0,0,0-.7,3V62.7a7.059,7.059,0,0,0,7.052,7.052H53.785A7.059,7.059,0,0,0,60.837,62.7V45.074a6.981,6.981,0,0,0-.7-3l14.035-9.649A1.76,1.76,0,0,0,74.94,30.97Zm-3.612-1.763H62.55A33.923,33.923,0,0,0,50.918,5.228,26.467,26.467,0,0,1,71.328,29.207ZM32.065,39.351l-9.627-6.618h5.83l4.892,5.98A7.128,7.128,0,0,0,32.065,39.351ZM59.024,29.207H46.733V6.366l.5.386A30.469,30.469,0,0,1,59.024,29.207ZM42.71,6.754l.5-.388V29.207H30.958A30.431,30.431,0,0,1,42.71,6.754ZM37.15,38.022l-4.326-5.289H57.117L52.79,38.022Zm19.629.691,4.894-5.98H67.5l-9.627,6.618A7.062,7.062,0,0,0,56.778,38.713ZM39.022,5.228A33.927,33.927,0,0,0,27.39,29.207H18.612A26.467,26.467,0,0,1,39.022,5.228ZM57.311,62.7a3.529,3.529,0,0,1-3.526,3.526H36.155A3.529,3.529,0,0,1,32.629,62.7V45.074a3.529,3.529,0,0,1,3.526-3.526H53.785a3.529,3.529,0,0,1,3.526,3.526Z" transform="translate(8.392)" fill="#43bca9"/>
  </g>
</svg>
