<svg xmlns="http://www.w3.org/2000/svg" width="115.696" height="104.5" viewBox="0 0 115.696 104.5">
  <path id="physical-therapy" d="M104.5,55A24.291,24.291,0,0,0,81.241,37.589H70.7l-6.253-5.007a13.063,13.063,0,0,0,7.464-11.788V17.063a13.063,13.063,0,0,0-26.125,0v3.732a13.063,13.063,0,0,0,6.1,11.034,10.659,10.659,0,0,0-4.34,5.423l-.118.338H36.455A24.291,24.291,0,0,0,13.2,55,22.393,22.393,0,0,0,1,74.911v31.723H4.732V74.911a18.627,18.627,0,0,1,7.561-14.966c-.05.631-.1,1.261-.1,1.9V99.17h3.732V61.848a20.486,20.486,0,0,1,.438-4.21,18.545,18.545,0,0,1,7.026-1.388h17.45l-2.415,6.843a1.866,1.866,0,0,0-.093.621h-.013a19.967,19.967,0,0,0,1.866,8.412v4.65a6.236,6.236,0,0,1-2.181,4.744L28.3,89.839H21.527a1.866,1.866,0,0,0-1.866,1.866v13.063a1.866,1.866,0,0,0,1.866,1.866h1.866a7.464,7.464,0,0,0,7.222-5.671A21.725,21.725,0,0,0,43.3,95.66l6.5-5.692A10.077,10.077,0,0,0,53.2,83.3a4.566,4.566,0,0,1,1.915,3.717v19.618a1.866,1.866,0,0,0,1.866,1.866H71.911a1.866,1.866,0,0,0,1.866-1.866v-1.866a7.464,7.464,0,0,0-5.6-7.2V80.509a17.373,17.373,0,0,0-4.016-11.094L58.986,63.2l1.392-6.955H94.3a18.545,18.545,0,0,1,7.026,1.385,20.493,20.493,0,0,1,.439,4.214V99.17H105.5V61.848c0-.642-.047-1.273-.1-1.9a18.627,18.627,0,0,1,7.561,14.966v31.723H116.7V74.911A22.393,22.393,0,0,0,104.5,55Zm-36.321-34.2a9.286,9.286,0,0,1-15.5,6.944L58.3,22.114a1.866,1.866,0,0,0,.547-1.319V17.063h9.33ZM49.518,17.063a9.33,9.33,0,0,1,17.87-3.732H56.982A1.866,1.866,0,0,0,55.116,15.2v4.826l-4.7,4.7a9.218,9.218,0,0,1-.9-3.928ZM23.393,52.518a22.305,22.305,0,0,0-5.548.724,20.538,20.538,0,0,1,18.61-11.92h9.657l-3.952,11.2Zm0,50.384v-9.33h3.732v5.6A3.732,3.732,0,0,1,23.393,102.9ZM47.348,87.16l-6.5,5.69a18,18,0,0,1-9.989,4.357V92.564l9.577-8.211a9.957,9.957,0,0,0,3.445-6.815,19.906,19.906,0,0,0,5.639,4.115v.722a6.361,6.361,0,0,1-2.17,4.784Zm22.7,17.608h-11.2v-3.732h7.464A3.732,3.732,0,0,1,70.045,104.768Zm-5.6-24.259V97.3h-5.6V87.016a8.3,8.3,0,0,0-5.678-7.879A16.2,16.2,0,0,1,42.2,65.58H56.107L61.295,71.8A13.622,13.622,0,0,1,64.446,80.509ZM55.454,61.848H42.824l1.976-5.6H56.573Zm5.671-9.33.855-4.268,5.973,4.268Zm9.181-2.905L61.8,43.536a1.866,1.866,0,0,0-2.913,1.151l-1.568,7.83h-11.2l4.951-14.024A6.949,6.949,0,0,1,61.966,35.38L75.3,46.044a12.562,12.562,0,0,0,5.943,2.583v3.891H79.375A15.526,15.526,0,0,1,70.306,49.612Zm14.667,2.905V48.786h1.866a1.866,1.866,0,1,1,0,3.732Zm9.33,0H92.094a5.535,5.535,0,0,0,.343-1.866,5.6,5.6,0,0,0-5.6-5.6H83.107a8.813,8.813,0,0,1-5.481-1.922l-2.262-1.81h5.876a20.538,20.538,0,0,1,18.61,11.92,22.306,22.306,0,0,0-5.548-.724Z" transform="translate(-1 -4)" fill="#43bca9"/>
</svg>
