<svg xmlns="http://www.w3.org/2000/svg" width="51.141" height="65.925" viewBox="0 0 51.141 65.925">
  <path id="Path_23" data-name="Path 23" d="M203.568,158.446l.011.011L181.4,174.023l.061.006s-7.973,5.55-9.707,6.8-.005,0-.005,0c-1,.837-1.816.427-1.816-.915V141.645H164.38v38.428a6.707,6.707,0,0,0,6.57,6.835,6.375,6.375,0,0,0,3.929-1.356l36.981-26a6.73,6.73,0,0,0,.7-.5l.267-.188-.016-.024a7.541,7.541,0,0,0,2.132-7.757,7.312,7.312,0,0,0-3.865-4.6l-44.269-25.51-2.69,5.048L203,148.45h0c2.533,1.464,5.131,2.976,5.281,3.106a1.375,1.375,0,0,1,.352.382,2.194,2.194,0,0,1-.421,3.222Z" transform="translate(-164.124 -120.983)" fill="#43bca9" fill-rule="evenodd"/>
</svg>
