<svg xmlns="http://www.w3.org/2000/svg" width="26.979" height="26.979" viewBox="0 0 26.979 26.979">
  <path id="phone-Filled_1_" d="M759.045,2868.367a6.069,6.069,0,0,1-4.6,2.113h-.166A21.364,21.364,0,0,1,733.5,2849.7a6.079,6.079,0,0,1,2.126-4.791,5.72,5.72,0,0,1,4.755-1.322,4.982,4.982,0,0,1,.673.169,2.117,2.117,0,0,1,1.42,1.69l.951,6.042a2.153,2.153,0,0,1-.768,2c-.119.1-.243.189-.372.274a.764.764,0,0,0-.307.946,14,14,0,0,0,7.279,7.28.77.77,0,0,0,.953-.315c.067-.1.136-.192.207-.283a2.149,2.149,0,0,1,2.032-.777l6.151,1.024a2.091,2.091,0,0,1,1.684,1.467c.038.138.075.294.107.471A5.787,5.787,0,0,1,759.045,2868.367Z" transform="translate(-733.499 -2843.5)" fill="#43bca9"/>
</svg>
