<svg xmlns="http://www.w3.org/2000/svg" width="25.625" height="32.458" viewBox="0 0 25.625 32.458">
  <path id="map-marker-Filled_1_" d="M223.729,2784.312a3.417,3.417,0,1,1-3.417-3.417A3.427,3.427,0,0,1,223.729,2784.312Zm9.4,0c0,10.387-7.978,16.9-11.395,19.2a2.4,2.4,0,0,1-1.418.444,2.493,2.493,0,0,1-1.435-.444c-3.417-2.306-11.378-8.8-11.378-19.2a12.813,12.813,0,0,1,25.625,0Zm-5.979,0a6.833,6.833,0,1,0-6.833,6.833A6.831,6.831,0,0,0,227.146,2784.312Z" transform="translate(-207.5 -2771.5)" fill="#43bca9"/>
</svg>
