<svg xmlns="http://www.w3.org/2000/svg" width="43.643" height="28.64" viewBox="0 0 43.643 28.64">
  <g id="Group_177198" data-name="Group 177198" transform="translate(-1524 -1311.836)">
    <g id="Group_177197" data-name="Group 177197">
      <g id="Group_177196" data-name="Group 177196">
        <g id="Group_177195" data-name="Group 177195">
          <g id="Group_177194" data-name="Group 177194" transform="translate(77 84.835)">
            <g id="letter" transform="translate(1447 1227)">
              <path id="Path_120" data-name="Path 120" d="M4.091,28.64h35.46a4.091,4.091,0,0,0,4.091-4.091V4.091A4.091,4.091,0,0,0,39.551,0H4.091A4.091,4.091,0,0,0,0,4.091V24.549A4.093,4.093,0,0,0,4.091,28.64Z" fill="#43bca9"/>
              <path id="Path_121" data-name="Path 121" d="M1.372,27.31,18.439,14.177,1.409.751A4.064,4.064,0,0,0,0,3.818V24.276A4.062,4.062,0,0,0,1.372,27.31ZM42.262.774l-17.7,13.441L42.246,27.331a4.057,4.057,0,0,0,1.4-3.055V3.818A4.069,4.069,0,0,0,42.262.774Z" transform="translate(0 0.273)" fill="#43bca9"/>
              <path id="Path_122" data-name="Path 122" d="M42.913,26.472l-14.9-11.925,15.083-12.2A4.1,4.1,0,0,0,41.525.558L22.259,15.969,2.473.2A4.093,4.093,0,0,0,.521,1.719L16.452,14.5.727,27.026a4.076,4.076,0,0,0,2.115,1.386L18.421,16.089l.951.766a4,4,0,0,0,5.78,0l.885-.716L41.174,28.127a4.079,4.079,0,0,0,1.739-1.654Z" transform="translate(0.19 0.072)" fill="#43bca9" opacity="0.52"/>
            </g>
          </g>
        </g>
      </g>
    </g>
  </g>
</svg>
