<svg xmlns="http://www.w3.org/2000/svg" width="187.267" height="145.117" viewBox="0 0 187.267 145.117">
  <path id="Layer_3" data-name="Layer 3" d="M2.55,103.454H12.791V156.96a2.56,2.56,0,0,0,2.56,2.56H32.907a2.56,2.56,0,0,0,2.56-2.56V126.935c.184.01.37.029.554.029a10.351,10.351,0,0,0,9.48-6.185l7.552-17.325H96.2a2.56,2.56,0,1,0,0-5.12H53.937V81.6H182.131V98.334h-52.1a2.56,2.56,0,0,0,0,5.12h21.744V156.96a2.56,2.56,0,0,0,2.56,2.56H171.89a2.56,2.56,0,0,0,2.56-2.56V103.454h10.241a2.56,2.56,0,0,0,2.56-2.56V79.037a18.647,18.647,0,0,0-18.625-18.625H155.632a2.56,2.56,0,0,0,0,5.12h12.994a13.527,13.527,0,0,1,13.262,10.945H51.377a2.56,2.56,0,0,0-2.56,2.56v21.324L40.81,118.734a5.194,5.194,0,1,1-9.4-4.414l3.84-8.809,1.561-3.583v-.009a2.529,2.529,0,0,0,.154-.484v-.007a2.566,2.566,0,0,0,.054-.522V66.612a9.877,9.877,0,0,1,9.865-9.865H114.25a29.343,29.343,0,0,1,20.271,8.083,2.56,2.56,0,0,0,1.756.7h9.839a2.56,2.56,0,1,0,0-5.12h-8.832a34.431,34.431,0,0,0-23.032-8.778H104.7V41.1a12.744,12.744,0,0,0-4.6-9.8V28.462a8.178,8.178,0,0,0-5.608-7.754V16.963a2.56,2.56,0,0,0-5.12,0v3.748a8.178,8.178,0,0,0-5.608,7.754v2.829a12.744,12.744,0,0,0-4.6,9.8V51.63H74.353V41.1a12.744,12.744,0,0,0-4.6-9.8V28.462a8.178,8.178,0,0,0-5.608-7.754V16.963a2.56,2.56,0,0,0-5.12,0v3.748a8.178,8.178,0,0,0-5.608,7.754v2.829a12.744,12.744,0,0,0-4.6,9.8V51.63H46.9a14.933,14.933,0,0,0-11.073,4.926A18.505,18.505,0,1,0,5.763,76.477H2.544a2.56,2.56,0,0,0-2.56,2.56v21.857a2.56,2.56,0,0,0,2.566,2.56ZM169.329,154.4H156.894V103.454h12.435ZM88.883,28.695v-.233a3.048,3.048,0,1,1,6.1,0v.233A12.845,12.845,0,0,0,88.883,28.695Zm-4.6,12.4a7.648,7.648,0,0,1,4.535-6.968,7.868,7.868,0,0,1,6.234,0A7.648,7.648,0,0,1,99.588,41.1V51.628h-15.3Zm-25.748-12.4v-.233a3.048,3.048,0,1,1,6.1,0v.233a12.842,12.842,0,0,0-6.095,0Zm-4.6,12.4a7.648,7.648,0,0,1,15.3,0V51.628H53.937ZM17.911,154.406V103.454H30.347v.494l-3.627,8.323a10.8,10.8,0,0,0,.512,9.8,9.792,9.792,0,0,0,3.115,3.219v29.113Zm14-77.924h-.652q.335-.319.652-.652ZM5.11,63.076a13.4,13.4,0,1,1,13.4,13.4,13.4,13.4,0,0,1-13.4-13.4Zm0,18.521h26.8V98.334H5.11Zm104.072,21.857a2.56,2.56,0,0,1,0-5.12h7.863a2.56,2.56,0,1,1,0,5.12Z" transform="translate(0.016 -14.403)" fill="#4db6ac"/>
</svg>
