<svg id="map-marker-Filled" xmlns="http://www.w3.org/2000/svg" width="24" height="24" viewBox="0 0 24 24">
  <rect id="Path" width="24" height="24" fill="rgba(255,255,255,0)"/>
  <path id="map-marker-Filled_1_" d="M217,2779a2,2,0,1,1-2-2A2.006,2.006,0,0,1,217,2779Zm5.5,0c0,6.08-4.67,9.89-6.67,11.24a1.407,1.407,0,0,1-.83.26,1.459,1.459,0,0,1-.84-.26c-2-1.35-6.66-5.15-6.66-11.24a7.5,7.5,0,0,1,15,0Zm-3.5,0a4,4,0,1,0-4,4A4,4,0,0,0,219,2779Z" transform="translate(-203 -2769)" fill="#43bca9"/>
</svg>
