<svg xmlns="http://www.w3.org/2000/svg" width="17.143" height="17.144" viewBox="0 0 17.143 17.144">
  <path id="globe-Filled_1_" d="M557.649,2560.717a8.517,8.517,0,0,0-6.851-5.631,8.865,8.865,0,0,0-2.454,0,8.513,8.513,0,0,0-6.847,5.624,8.5,8.5,0,0,0,0,5.718,8.516,8.516,0,0,0,6.851,5.631,8.817,8.817,0,0,0,1.227.086,8.69,8.69,0,0,0,1.227-.086,8.513,8.513,0,0,0,6.847-5.624,8.5,8.5,0,0,0,0-5.718Zm-1.221,2.855a6.714,6.714,0,0,1-.22,1.715h-2.467a12.763,12.763,0,0,0,0-3.429h2.468A6.716,6.716,0,0,1,556.428,2563.572Zm-9.3,1.715a12.624,12.624,0,0,1-.132-1.715,12.493,12.493,0,0,1,.132-1.713h4.88a11.2,11.2,0,0,1,0,3.429Zm-4.2,0a6.809,6.809,0,0,1,0-3.429H545.4a12.756,12.756,0,0,0,0,3.429Zm12.56-5.143h-2.067a14.092,14.092,0,0,0-.983-2.8A6.774,6.774,0,0,1,555.493,2560.144Zm-5.32-3.387a12.456,12.456,0,0,1,1.494,3.387h-4.191a12.478,12.478,0,0,1,1.494-3.387c.2-.017.4-.042.6-.042S549.973,2556.74,550.173,2556.756Zm-3.474.587a14.115,14.115,0,0,0-.984,2.8h-2.067A6.787,6.787,0,0,1,546.7,2557.343ZM543.65,2567h2.066a14.088,14.088,0,0,0,.983,2.8A6.778,6.778,0,0,1,543.65,2567Zm5.318,3.385a12.492,12.492,0,0,1-1.493-3.385h4.191a12.472,12.472,0,0,1-1.493,3.385A7.187,7.187,0,0,1,548.969,2570.386Zm3.476-.587a14.132,14.132,0,0,0,.983-2.8h2.067A6.781,6.781,0,0,1,552.445,2569.8Z" transform="translate(-541 -2555)" fill="#fff"/>
</svg>
