<svg xmlns="http://www.w3.org/2000/svg" width="124.047" height="132.489" viewBox="0 0 124.047 132.489">
  <g id="patient" transform="translate(-228 -1)">
    <path id="Path_60481" data-name="Path 60481" d="M1423.547,1356.993a1.543,1.543,0,0,1-1.547-1.547v-59.9a1.543,1.543,0,0,1,1.547-1.547h9.71a1.543,1.543,0,0,1,1.547,1.547v59.9a1.56,1.56,0,0,1-1.882,1.51,21.726,21.726,0,0,0-9.039,0A2.052,2.052,0,0,1,1423.547,1356.993Zm4.864-3.615a24.071,24.071,0,0,1,3.28.224v-56.488h-6.579v56.47A27.767,27.767,0,0,1,1428.411,1353.377Zm71.565,3.615a2.048,2.048,0,0,1-.335-.037,21.727,21.727,0,0,0-9.039,0,1.56,1.56,0,0,1-1.882-1.51v-59.9a1.543,1.543,0,0,1,1.547-1.547h9.71a1.543,1.543,0,0,1,1.547,1.547v59.9A1.543,1.543,0,0,1,1499.976,1356.993Zm-8.144-59.88V1353.6a24.311,24.311,0,0,1,6.579,0v-56.488Z" transform="translate(-1171.748 -1268.903)" fill="#43bca9" fill-rule="evenodd"/>
    <path id="Path_60482" data-name="Path 60482" d="M474.526,767.45a24.507,24.507,0,1,1,24.507-24.507A24.541,24.541,0,0,1,474.526,767.45Zm0-45.921a21.414,21.414,0,1,0,21.4,21.414A21.439,21.439,0,0,0,474.526,721.529Zm66.72,45.921a24.507,24.507,0,1,1,24.507-24.507A24.541,24.541,0,0,1,541.246,767.45Zm0-45.921a21.414,21.414,0,1,0,21.4,21.414A21.439,21.439,0,0,0,541.246,721.529Zm-59.6-59.358H467.388a7.588,7.588,0,0,1-7.567-7.585v-6.02A1.559,1.559,0,0,1,461.368,647h26.3a1.575,1.575,0,0,1,1.565,1.565v6.02A7.6,7.6,0,0,1,481.645,662.17Zm-18.73-12.058v4.473a4.486,4.486,0,0,0,4.473,4.473h14.257a4.486,4.486,0,0,0,4.473-4.473v-4.473Zm85.45,12.058H534.108a7.588,7.588,0,0,1-7.567-7.585v-6.02A1.559,1.559,0,0,1,528.088,647h26.3a1.575,1.575,0,0,1,1.566,1.565v6.02A7.616,7.616,0,0,1,548.365,662.17Zm-18.73-12.058v4.473a4.486,4.486,0,0,0,4.473,4.473h14.257a4.486,4.486,0,0,0,4.473-4.473v-4.473Z" transform="translate(-217.863 -633.961)" fill="#43bca9" fill-rule="evenodd"/>
    <path id="Path_60483" data-name="Path 60483" d="M347.108,16.152H232.92a4.927,4.927,0,0,1-4.92-4.92V5.92A4.915,4.915,0,0,1,232.92,1H347.108a4.931,4.931,0,0,1,4.939,4.92v5.312A4.943,4.943,0,0,1,347.108,16.152ZM232.92,4.094a1.829,1.829,0,0,0-1.826,1.826v5.312a1.814,1.814,0,0,0,1.826,1.808H347.108a1.814,1.814,0,0,0,1.826-1.808V5.92a1.829,1.829,0,0,0-1.826-1.826Zm90.463,122.668a17.789,17.789,0,1,1,17.78-17.78A17.8,17.8,0,0,1,323.383,126.761Zm0-32.465a14.686,14.686,0,1,0,14.667,14.686A14.7,14.7,0,0,0,323.383,94.3Zm-66.72,32.465a17.789,17.789,0,1,1,17.78-17.78A17.8,17.8,0,0,1,256.663,126.761Zm0-32.465a14.686,14.686,0,1,0,14.667,14.686A14.7,14.7,0,0,0,256.663,94.3Z" fill="#43bca9" fill-rule="evenodd"/>
  </g>
</svg>
