<svg xmlns="http://www.w3.org/2000/svg" xmlns:xlink="http://www.w3.org/1999/xlink" width="168" height="168" viewBox="0 0 168 168">
  <defs>
    <clipPath id="clip-path">
      <rect id="Rectangle_126" data-name="Rectangle 126" width="168" height="168" transform="translate(815 649)" fill="#fff" stroke="#707070" stroke-width="1"/>
    </clipPath>
  </defs>
  <g id="Mask_Group_10" data-name="Mask Group 10" transform="translate(-815 -649)" clip-path="url(#clip-path)">
    <g id="therapist_3_" data-name="therapist (3)" transform="translate(810.593 645.062)">
      <path id="Path_133" data-name="Path 133" d="M113.763,43.492V50.3l17.6,4.538a7.591,7.591,0,0,1,5.4,5.255l11.581,40.32a10.642,10.642,0,0,1-3.61,11.272h0a10.642,10.642,0,0,1-12.966.208l-29.1-21.623a7.14,7.14,0,0,1-1.54-9.9h0a7.141,7.141,0,0,1,9.75-1.781L132.39,92.886" fill="none" stroke="#43bca9" stroke-linecap="round" stroke-linejoin="round" stroke-miterlimit="10" stroke-width="5.179"/>
      <path id="Path_134" data-name="Path 134" d="M123.117,86.177a8.185,8.185,0,0,0,2.334-8.19h0a8.188,8.188,0,0,0-9.553-5.841L65.14,80.876A8.428,8.428,0,0,0,58.894,85.7L41.325,124.414H7m81.972-29.1,15.624-3.681M66.715,135.8l6.544-24.118M49.2,137.547l110.813,5.631a10.324,10.324,0,0,1,9.8,10.311h0a10.324,10.324,0,0,1-10.324,10.324H8.748m89.3-120.321V49.8l-18.21,5.026a7.591,7.591,0,0,0-4.94,4.654l-7.132,20" fill="none" stroke="#43bca9" stroke-linecap="round" stroke-linejoin="round" stroke-miterlimit="10" stroke-width="5.179"/>
      <circle id="Ellipse_791" data-name="Ellipse 791" cx="16.673" cy="16.673" r="16.673" transform="translate(89.382 12.063)" fill="none" stroke="#43bca9" stroke-linecap="round" stroke-linejoin="round" stroke-miterlimit="10" stroke-width="5.179"/>
      <path id="Path_135" data-name="Path 135" d="M85.766,101.01l-9.215,2.7a4.107,4.107,0,0,1-5.1-2.787l-1.139-3.887a4.107,4.107,0,0,1,2.787-5.1l9.215-2.7a4.107,4.107,0,0,1,5.1,2.787l1.139,3.887A4.107,4.107,0,0,1,85.766,101.01Zm40.573,7.52v32.14" fill="none" stroke="#43bca9" stroke-linecap="round" stroke-linejoin="round" stroke-miterlimit="10" stroke-width="5.179"/>
    </g>
  </g>
</svg>
