<svg xmlns="http://www.w3.org/2000/svg" width="57.186" height="62.868" viewBox="0 0 57.186 62.868">
  <g id="vision" transform="translate(-23.134)">
    <path id="Path_101" data-name="Path 101" d="M125.812,88.4a19.56,19.56,0,0,0-14.242-5.6,19.807,19.807,0,0,0-19.226,19.742,19.59,19.59,0,0,0,7.6,15.5,8.214,8.214,0,0,1,3.13,6.442v2.978h17.94V124.48A8.2,8.2,0,0,1,124.2,118a19.7,19.7,0,0,0,1.617-29.6Zm-2.083,29.009a8.949,8.949,0,0,0-3.468,7.074V126.7H103.832V124.48a8.975,8.975,0,0,0-3.421-7.038A18.839,18.839,0,0,1,93.1,102.536a19.047,19.047,0,0,1,18.488-18.984,18.944,18.944,0,0,1,12.141,33.854Z" transform="translate(-60.711 -72.625)" fill="#4a555f"/>
    <path id="Path_102" data-name="Path 102" d="M123.756,96.129c-.146,0-.292,0-.438.005a18.159,18.159,0,0,0-17.626,18.1,17.955,17.955,0,0,0,6.97,14.212,9.862,9.862,0,0,1,3.762,7.733v1.34h14.663v-1.34a9.826,9.826,0,0,1,3.807-7.768,18.062,18.062,0,0,0-11.137-32.283Zm.1,30.144a11.717,11.717,0,1,1,11.717-11.717A11.73,11.73,0,0,1,123.859,126.273Z" transform="translate(-72.42 -84.325)" fill="#43bca9"/>
    <path id="Path_103" data-name="Path 103" d="M183.115,461.322h17.07v.756h-17.07Zm0,2.922h17.07V465h-17.07Z" transform="translate(-140.337 -404.677)" fill="#4a555f"/>
    <path id="Path_104" data-name="Path 104" d="M203.653,488.2h12.279v2.922H203.653Z" transform="translate(-158.353 -428.255)" fill="#43bca9"/>
    <path id="Path_105" data-name="Path 105" d="M177.872,159.814a10.607,10.607,0,1,0,10.607,10.607A10.619,10.619,0,0,0,177.872,159.814Zm0,20.459a9.851,9.851,0,1,1,9.851-9.851A9.862,9.862,0,0,1,177.872,180.273Z" transform="translate(-126.433 -140.191)" fill="#4a555f"/>
    <path id="Path_106" data-name="Path 106" d="M222.88,209a1.929,1.929,0,1,1-2.641-2.719A4.954,4.954,0,1,0,222.88,209Z" transform="translate(-166.84 -180.598)" fill="#43bca9"/>
    <path id="Path_107" data-name="Path 107" d="M25.986,26.343l.551.517q.256-.272.518-.538l-.538-.531q-.269.272-.531.552Zm6.506-5.3q-.325.2-.645.41l.413.633q.313-.2.631-.4l-.4-.643Zm-7.525,6.445.578.488q.241-.285.489-.563l-.564-.5q-.255.286-.5.579Zm-1.833,2.478.646.393c.06-.1.193-.311.4-.615l-.622-.43C23.34,29.633,23.2,29.858,23.134,29.965Zm.877-1.277.606.452q.223-.3.455-.59l-.591-.471q-.239.3-.469.608Zm3.052-3.435.524.545q.269-.259.544-.512l-.511-.557q-.282.259-.557.524Zm2.3-2.014.47.592q.293-.232.591-.458l-.456-.6q-.305.231-.6.469Zm1.22-.923.442.613q.3-.218.611-.429l-.427-.624q-.316.216-.626.44Zm-2.4,1.9.5.569q.276-.241.568-.485l-.484-.581q-.294.245-.582.5Zm17.36-7.937.117.747q.367-.057.741-.108l-.1-.749q-.381.052-.755.111Zm4.554-.446.032.755q.371-.015.749-.025l-.019-.756q-.384.009-.762.025Zm-1.523.092.059.754q.37-.029.747-.052l-.046-.754Q48.958,15.9,48.581,15.926Zm-1.519.148.087.751q.369-.043.745-.079l-.073-.752q-.383.037-.759.081Zm-4.508.8.177.735q.36-.087.729-.167L43.3,16.7q-.376.082-.744.171Zm-1.478.389.208.727q.359-.1.721-.2l-.192-.731q-.37.1-.737.2Zm-2.9.966.27.706q.349-.134.7-.26l-.255-.712q-.36.129-.717.265Zm-1.415.578.3.693q.343-.149.689-.291l-.286-.7q-.354.145-.7.3Zm2.854-1.093.239.717q.355-.118.712-.229l-.223-.722q-.365.113-.728.234Zm4.429-1.167.146.742q.364-.072.736-.138l-.131-.744Q44.418,16.473,44.046,16.546ZM62,17.83q.364.1.72.2l.213-.725q-.364-.107-.736-.208l-.2.73Zm-1.451-.359q.368.083.728.172l.181-.734q-.371-.092-.744-.175Zm4.561.556-.262.709q.354.13.7.266l.278-.7Q65.471,18.16,65.112,18.027Zm-6.027-.854q.371.067.734.141l.15-.741q-.374-.076-.75-.144l-.134.744Zm4.352,1.078q.359.114.71.235l.245-.715q-.362-.124-.726-.24ZM53.132,16.567q.377.01.749.027l.034-.755q-.381-.017-.762-.028l-.021.756Zm-1.5-.77.006.756h.321l.429,0,.007-.756q-.381,0-.763,0Zm5.98,1.139q.374.052.74.111l.12-.746q-.377-.061-.755-.113l-.1.749Zm-2.979-.3q.377.024.747.054l.061-.753q-.38-.031-.761-.055Zm1.492.122q.376.038.744.082l.09-.75q-.379-.046-.758-.084ZM71.954,22.43q.306.214.607.434l.447-.609q-.308-.226-.622-.445l-.433.62Zm1.2.884q.3.228.585.464l.477-.586q-.3-.242-.6-.476l-.462.6Zm-3.734-2.47q.326.183.647.373l.386-.65q-.329-.2-.663-.382Zm1.284.762q.317.2.628.4l.417-.631q-.319-.211-.643-.414Zm3.608,2.649q.289.247.561.492l.506-.562q-.285-.256-.576-.5l-.491.575Zm5.594,5.122-.634.412c.254.39.378.619.379.621l.665-.36C80.315,30.041,80.182,29.8,79.91,29.378Zm-.888-1.258-.6.457q.225.3.44.6l.617-.437Q79.255,28.426,79.022,28.119Zm-3.076-3.414-.52.549q.271.257.536.52l.534-.536q-.271-.27-.55-.533Zm2.113,2.219-.575.491q.242.283.476.573l.588-.475q-.241-.3-.49-.59Zm-1.028-1.138-.547.522q.257.27.507.547l.561-.507q-.257-.285-.521-.562ZM27.378,36.219q.273.266.551.528l.518-.55q-.273-.257-.542-.519ZM26.3,35.137q.264.275.533.546l.536-.533q-.264-.266-.524-.537l-.545.524Zm-2.4-3.923-.6.458q.233.3.473.6l.589-.473q-.235-.291-.461-.589Zm.937,1.168-.58.485q.245.293.5.581l.571-.5q-.246-.283-.487-.571Zm.983,1.133-.562.505q.255.284.515.563l.554-.515q-.255-.275-.506-.554Zm6.217,6.639q.31.223.626.439l.427-.624q-.308-.212-.612-.43l-.441.614Zm1.674.231-.413.633q.32.209.646.411l.4-.643q-.318-.2-.63-.4Zm-5.228-3.119q.282.257.569.509l.5-.568q-.282-.247-.559-.5Zm1.147,1.007q.291.247.588.488l.477-.586q-.29-.236-.576-.478Zm1.184.964q.3.235.606.464l.454-.6q-.3-.225-.594-.455Zm17.674,6q.377.03.76.055l.048-.754q-.374-.024-.747-.054l-.061.753Zm-3.03-.363q.374.06.755.113l.1-.749q-.371-.051-.74-.11Zm1.512.21q.376.045.758.083l.076-.752q-.372-.037-.744-.082l-.09.75Zm-3.015-.48q.371.074.75.143L44.844,44q-.368-.066-.735-.14l-.149.741Zm-2.967-.725q.367.106.736.2l.195-.73q-.361-.1-.721-.2Zm1.476.393q.368.09.743.173l.164-.738q-.365-.081-.729-.17ZM38.1,42.9q.353.136.716.268l.257-.711q-.351-.127-.7-.262Zm11.918,2.429q.378.017.762.028l.02-.756q-.377-.01-.749-.027l-.034.755Zm-10.481-1.91q.359.121.727.236l.226-.722q-.357-.112-.711-.231Zm12.444,1.2-.432,0-.007.756.439,0H52.3l-.005-.756H51.98Zm9.942-1.249.2.73q.372-.1.736-.205l-.211-.726Q62.283,43.27,61.921,43.367Zm-1.453.354.164.738q.376-.083.744-.173l-.179-.735q-.36.088-.729.17Zm3.6-1q-.354.12-.71.232l.227.721q.368-.116.727-.238ZM59,44.014l.133.744q.379-.067.75-.142l-.148-.741Q59.373,43.948,59,44.014Zm-1.478.233.1.749q.381-.052.755-.111l-.118-.747Q57.9,44.2,57.523,44.247Zm-2.98.293.046.754q.384-.023.761-.053l-.06-.753Q54.92,44.516,54.543,44.539Zm-1.5.063.019.756q.384-.01.762-.026l-.032-.755Q53.424,44.593,53.046,44.6Zm2.99-.181.074.752q.38-.037.759-.082l-.088-.751Q56.412,44.385,56.036,44.421Zm14.6-4.569.431.621q.314-.218.623-.443l-.444-.611q-.3.22-.61.433Zm2.384-1.809.481.583q.294-.243.584-.492l-.493-.573Q73.314,37.805,73.025,38.044Zm-1.173.93.457.6q.3-.231.6-.468l-.47-.593Q72.15,38.747,71.852,38.973Zm-3.741,2.47.372.658q.333-.188.662-.384l-.388-.649q-.321.191-.646.375Zm1.283-.766.4.64q.324-.2.643-.415l-.417-.63q-.312.206-.628.405Zm10.28-9.7s-.151.223-.433.6l.6.453c.3-.394.449-.621.455-.631l-.627-.422Zm-1.36,1.775.583.481q.243-.3.48-.6l-.593-.469Q78.553,32.464,78.315,32.753Zm-.977,1.136.563.5q.255-.285.5-.574l-.573-.493q-.244.284-.494.563Zm-2.079,2.159.524.544q.275-.265.545-.535l-.535-.534q-.265.265-.535.525Zm1.059-1.06.545.524q.265-.275.524-.555l-.554-.514q-.255.275-.515.545Zm-2.158,2.08.5.564q.285-.255.564-.514l-.514-.554Q74.44,36.818,74.161,37.067Zm-31.8,17.01v6.245H60.226V54.078ZM59.47,59.567H43.121V54.834H59.47ZM50.917,0h.756V5.945h-.756ZM35.781,3.736,36.4,3.3l3.43,4.855-.617.436ZM63.641,8.153,67.073,3.3l.617.436L64.259,8.59Z" transform="translate(0)" fill="#4a555f"/>
  </g>
</svg>
